<svg width="32" height="32" viewBox="0 0 32 32" fill="none" xmlns="http://www.w3.org/2000/svg">
<g clip-path="url(#clip0_2225_3153)">
<rect width="32" height="32" fill="white"/>
<g clip-path="url(#clip1_2225_3153)">
<g clip-path="url(#clip2_2225_3153)">
<path d="M32 0H0V32H32V0Z" fill="#296B47"/>
<path fill-rule="evenodd" clip-rule="evenodd" d="M16 7L22.364 9.636L25 16L22.364 22.364L16 25L9.636 22.364L7 16L9.636 9.636L16 7ZM15.9654 9.95187H9.95187V15.9654L11.8686 14.893L10.7085 12.945L12.9756 12.9756L12.945 10.7085L14.893 11.8686L15.9654 9.95187ZM22.0481 15.9654V9.95187H16.0346L17.107 11.8686L19.055 10.7085L19.0244 12.9756L21.2915 12.945L20.1314 14.893L22.0481 15.9654ZM16.0346 22.0481H22.0481V16.0346L20.1314 17.107L21.2915 19.055L19.0244 19.0244L19.055 21.2915L17.107 20.1314L16.0346 22.0481ZM9.95187 16.0346V22.0481H15.9654L14.893 20.1314L12.945 21.2915L12.9756 19.0244L10.7085 19.055L11.8686 17.107L9.95187 16.0346ZM10.119 22.2959L16 24.7319L21.881 22.2959H10.119ZM22.2959 21.881L24.7319 16L22.2959 10.119V21.881ZM21.881 9.70413L16 7.26813L10.119 9.70413H21.881ZM9.70413 10.119L7.26813 16L9.70413 21.881V10.119Z" fill="#F7CE42"/>
</g>
</g>
<path d="M21.2257 32H10.7745L16.0001 26.7744L21.2257 32ZM5.22571 16L0.00012207 21.2256V10.7744L5.22571 16ZM32.0001 21.2256L26.7745 16L32.0001 10.7744V21.2256ZM16.0001 5.22559L10.7745 0H21.2257L16.0001 5.22559Z" fill="black" fill-opacity="0.5"/>
</g>
<defs>
<clipPath id="clip0_2225_3153">
<rect width="32" height="32" fill="white"/>
</clipPath>
<clipPath id="clip1_2225_3153">
<rect width="32" height="32" fill="white"/>
</clipPath>
<clipPath id="clip2_2225_3153">
<rect width="32" height="32" fill="white"/>
</clipPath>
</defs>
</svg>
